<mxfile host="app.diagrams.net" modified="2023-09-08T11:28:30.663Z" agent="Mozilla/5.0 (Macintosh; Intel Mac OS X 10_15_7) AppleWebKit/537.36 (KHTML, like Gecko) Chrome/116.0.0.0 Safari/537.36" etag="W06iSJtgvVU_Or1kr28j" version="21.7.2" type="device">
  <diagram name="Page-1" id="wqdkFg036trEDnxu9Tmw">
    <mxGraphModel dx="1912" dy="1109" grid="1" gridSize="10" guides="1" tooltips="1" connect="1" arrows="1" fold="1" page="1" pageScale="1" pageWidth="850" pageHeight="1100" math="0" shadow="0">
      <root>
        <mxCell id="0" />
        <mxCell id="1" parent="0" />
        <mxCell id="gtYnEdTjVLz-L2qjGS6A-1" value="" style="triangle;whiteSpace=wrap;html=1;" vertex="1" parent="1">
          <mxGeometry x="120" y="80" width="60" height="80" as="geometry" />
        </mxCell>
        <mxCell id="gtYnEdTjVLz-L2qjGS6A-2" value="" style="endArrow=none;html=1;rounded=0;exitX=1;exitY=0.5;exitDx=0;exitDy=0;entryX=1;entryY=0.5;entryDx=0;entryDy=0;" edge="1" parent="1" source="gtYnEdTjVLz-L2qjGS6A-1" target="gtYnEdTjVLz-L2qjGS6A-4">
          <mxGeometry width="50" height="50" relative="1" as="geometry">
            <mxPoint x="400" y="370" as="sourcePoint" />
            <mxPoint x="240" y="120" as="targetPoint" />
          </mxGeometry>
        </mxCell>
        <mxCell id="gtYnEdTjVLz-L2qjGS6A-4" value="" style="triangle;whiteSpace=wrap;html=1;rotation=-180;" vertex="1" parent="1">
          <mxGeometry x="260" y="80" width="60" height="80" as="geometry" />
        </mxCell>
        <mxCell id="gtYnEdTjVLz-L2qjGS6A-10" value="" style="endArrow=none;dashed=1;html=1;dashPattern=1 3;strokeWidth=2;rounded=0;" edge="1" parent="1">
          <mxGeometry width="50" height="50" relative="1" as="geometry">
            <mxPoint x="40" y="180" as="sourcePoint" />
            <mxPoint x="400" y="180" as="targetPoint" />
          </mxGeometry>
        </mxCell>
        <mxCell id="gtYnEdTjVLz-L2qjGS6A-11" value="" style="endArrow=none;html=1;rounded=0;exitX=0;exitY=0.75;exitDx=0;exitDy=0;" edge="1" parent="1" source="gtYnEdTjVLz-L2qjGS6A-4">
          <mxGeometry width="50" height="50" relative="1" as="geometry">
            <mxPoint x="400" y="370" as="sourcePoint" />
            <mxPoint x="360" y="100" as="targetPoint" />
          </mxGeometry>
        </mxCell>
        <mxCell id="gtYnEdTjVLz-L2qjGS6A-12" value="" style="endArrow=none;html=1;rounded=0;exitX=0;exitY=0.25;exitDx=0;exitDy=0;" edge="1" parent="1" source="gtYnEdTjVLz-L2qjGS6A-4">
          <mxGeometry width="50" height="50" relative="1" as="geometry">
            <mxPoint x="330" y="110" as="sourcePoint" />
            <mxPoint x="360" y="140" as="targetPoint" />
          </mxGeometry>
        </mxCell>
        <mxCell id="gtYnEdTjVLz-L2qjGS6A-13" value="" style="endArrow=none;html=1;rounded=0;exitX=0;exitY=0.25;exitDx=0;exitDy=0;" edge="1" parent="1" source="gtYnEdTjVLz-L2qjGS6A-1">
          <mxGeometry width="50" height="50" relative="1" as="geometry">
            <mxPoint x="330" y="150" as="sourcePoint" />
            <mxPoint x="80" y="100" as="targetPoint" />
          </mxGeometry>
        </mxCell>
        <mxCell id="gtYnEdTjVLz-L2qjGS6A-14" value="" style="endArrow=none;html=1;rounded=0;exitX=0;exitY=0.75;exitDx=0;exitDy=0;" edge="1" parent="1" source="gtYnEdTjVLz-L2qjGS6A-1">
          <mxGeometry width="50" height="50" relative="1" as="geometry">
            <mxPoint x="120" y="134.58" as="sourcePoint" />
            <mxPoint x="80" y="140" as="targetPoint" />
          </mxGeometry>
        </mxCell>
        <mxCell id="gtYnEdTjVLz-L2qjGS6A-16" value="A1" style="text;html=1;strokeColor=none;fillColor=none;align=center;verticalAlign=middle;whiteSpace=wrap;rounded=0;fontSize=16;" vertex="1" parent="1">
          <mxGeometry x="50" y="85" width="20" height="30" as="geometry" />
        </mxCell>
        <mxCell id="gtYnEdTjVLz-L2qjGS6A-21" value="A2" style="text;html=1;strokeColor=none;fillColor=none;align=center;verticalAlign=middle;whiteSpace=wrap;rounded=0;fontSize=16;" vertex="1" parent="1">
          <mxGeometry x="50" y="125" width="20" height="30" as="geometry" />
        </mxCell>
        <mxCell id="gtYnEdTjVLz-L2qjGS6A-25" value="B2" style="text;html=1;strokeColor=none;fillColor=none;align=center;verticalAlign=middle;whiteSpace=wrap;rounded=0;fontSize=16;" vertex="1" parent="1">
          <mxGeometry x="370" y="85" width="20" height="30" as="geometry" />
        </mxCell>
        <mxCell id="gtYnEdTjVLz-L2qjGS6A-26" value="B1" style="text;html=1;strokeColor=none;fillColor=none;align=center;verticalAlign=middle;whiteSpace=wrap;rounded=0;fontSize=16;" vertex="1" parent="1">
          <mxGeometry x="370" y="125" width="20" height="30" as="geometry" />
        </mxCell>
        <mxCell id="gtYnEdTjVLz-L2qjGS6A-30" value="" style="endArrow=none;html=1;rounded=0;" edge="1" parent="1">
          <mxGeometry width="50" height="50" relative="1" as="geometry">
            <mxPoint x="80" y="250" as="sourcePoint" />
            <mxPoint x="360" y="210" as="targetPoint" />
          </mxGeometry>
        </mxCell>
        <mxCell id="gtYnEdTjVLz-L2qjGS6A-32" value="" style="endArrow=none;html=1;rounded=0;" edge="1" parent="1">
          <mxGeometry width="50" height="50" relative="1" as="geometry">
            <mxPoint x="360" y="250" as="sourcePoint" />
            <mxPoint x="80" y="210" as="targetPoint" />
          </mxGeometry>
        </mxCell>
        <mxCell id="gtYnEdTjVLz-L2qjGS6A-34" value="A1" style="text;html=1;strokeColor=none;fillColor=none;align=center;verticalAlign=middle;whiteSpace=wrap;rounded=0;fontSize=16;" vertex="1" parent="1">
          <mxGeometry x="50" y="190" width="20" height="30" as="geometry" />
        </mxCell>
        <mxCell id="gtYnEdTjVLz-L2qjGS6A-35" value="A2" style="text;html=1;strokeColor=none;fillColor=none;align=center;verticalAlign=middle;whiteSpace=wrap;rounded=0;fontSize=16;" vertex="1" parent="1">
          <mxGeometry x="50" y="240" width="20" height="30" as="geometry" />
        </mxCell>
        <mxCell id="gtYnEdTjVLz-L2qjGS6A-36" value="B2" style="text;html=1;strokeColor=none;fillColor=none;align=center;verticalAlign=middle;whiteSpace=wrap;rounded=0;fontSize=16;" vertex="1" parent="1">
          <mxGeometry x="370" y="190" width="20" height="30" as="geometry" />
        </mxCell>
        <mxCell id="gtYnEdTjVLz-L2qjGS6A-37" value="B1" style="text;html=1;strokeColor=none;fillColor=none;align=center;verticalAlign=middle;whiteSpace=wrap;rounded=0;fontSize=16;" vertex="1" parent="1">
          <mxGeometry x="370" y="240" width="20" height="30" as="geometry" />
        </mxCell>
        <mxCell id="gtYnEdTjVLz-L2qjGS6A-56" value="" style="triangle;whiteSpace=wrap;html=1;" vertex="1" parent="1">
          <mxGeometry x="120" y="640" width="60" height="80" as="geometry" />
        </mxCell>
        <mxCell id="gtYnEdTjVLz-L2qjGS6A-57" value="" style="endArrow=none;html=1;rounded=0;exitX=1;exitY=0.5;exitDx=0;exitDy=0;entryX=1;entryY=0.5;entryDx=0;entryDy=0;" edge="1" parent="1" source="gtYnEdTjVLz-L2qjGS6A-56" target="gtYnEdTjVLz-L2qjGS6A-58">
          <mxGeometry width="50" height="50" relative="1" as="geometry">
            <mxPoint x="400" y="930" as="sourcePoint" />
            <mxPoint x="240" y="680" as="targetPoint" />
          </mxGeometry>
        </mxCell>
        <mxCell id="gtYnEdTjVLz-L2qjGS6A-58" value="" style="triangle;whiteSpace=wrap;html=1;rotation=-180;fillColor=#141414;" vertex="1" parent="1">
          <mxGeometry x="260" y="640" width="60" height="80" as="geometry" />
        </mxCell>
        <mxCell id="gtYnEdTjVLz-L2qjGS6A-59" value="" style="endArrow=none;dashed=1;html=1;dashPattern=1 3;strokeWidth=2;rounded=0;" edge="1" parent="1">
          <mxGeometry width="50" height="50" relative="1" as="geometry">
            <mxPoint x="40" y="740" as="sourcePoint" />
            <mxPoint x="400" y="740" as="targetPoint" />
          </mxGeometry>
        </mxCell>
        <mxCell id="gtYnEdTjVLz-L2qjGS6A-60" value="" style="endArrow=none;html=1;rounded=0;exitX=0;exitY=0.75;exitDx=0;exitDy=0;" edge="1" parent="1" source="gtYnEdTjVLz-L2qjGS6A-58">
          <mxGeometry width="50" height="50" relative="1" as="geometry">
            <mxPoint x="400" y="930" as="sourcePoint" />
            <mxPoint x="360" y="660" as="targetPoint" />
          </mxGeometry>
        </mxCell>
        <mxCell id="gtYnEdTjVLz-L2qjGS6A-61" value="" style="endArrow=none;html=1;rounded=0;exitX=0;exitY=0.25;exitDx=0;exitDy=0;" edge="1" parent="1" source="gtYnEdTjVLz-L2qjGS6A-58">
          <mxGeometry width="50" height="50" relative="1" as="geometry">
            <mxPoint x="330" y="670" as="sourcePoint" />
            <mxPoint x="360" y="700" as="targetPoint" />
          </mxGeometry>
        </mxCell>
        <mxCell id="gtYnEdTjVLz-L2qjGS6A-62" value="" style="endArrow=none;html=1;rounded=0;exitX=0;exitY=0.25;exitDx=0;exitDy=0;" edge="1" parent="1" source="gtYnEdTjVLz-L2qjGS6A-56">
          <mxGeometry width="50" height="50" relative="1" as="geometry">
            <mxPoint x="330" y="710" as="sourcePoint" />
            <mxPoint x="80" y="660" as="targetPoint" />
          </mxGeometry>
        </mxCell>
        <mxCell id="gtYnEdTjVLz-L2qjGS6A-63" value="" style="endArrow=none;html=1;rounded=0;exitX=0;exitY=0.75;exitDx=0;exitDy=0;" edge="1" parent="1" source="gtYnEdTjVLz-L2qjGS6A-56">
          <mxGeometry width="50" height="50" relative="1" as="geometry">
            <mxPoint x="120" y="694.58" as="sourcePoint" />
            <mxPoint x="80" y="700" as="targetPoint" />
          </mxGeometry>
        </mxCell>
        <mxCell id="gtYnEdTjVLz-L2qjGS6A-64" value="A1" style="text;html=1;strokeColor=none;fillColor=none;align=center;verticalAlign=middle;whiteSpace=wrap;rounded=0;fontSize=16;" vertex="1" parent="1">
          <mxGeometry x="50" y="645" width="20" height="30" as="geometry" />
        </mxCell>
        <mxCell id="gtYnEdTjVLz-L2qjGS6A-65" value="A2" style="text;html=1;strokeColor=none;fillColor=none;align=center;verticalAlign=middle;whiteSpace=wrap;rounded=0;fontSize=16;" vertex="1" parent="1">
          <mxGeometry x="50" y="685" width="20" height="30" as="geometry" />
        </mxCell>
        <mxCell id="gtYnEdTjVLz-L2qjGS6A-66" value="B2" style="text;html=1;strokeColor=none;fillColor=none;align=center;verticalAlign=middle;whiteSpace=wrap;rounded=0;fontSize=16;" vertex="1" parent="1">
          <mxGeometry x="370" y="645" width="20" height="30" as="geometry" />
        </mxCell>
        <mxCell id="gtYnEdTjVLz-L2qjGS6A-67" value="B1" style="text;html=1;strokeColor=none;fillColor=none;align=center;verticalAlign=middle;whiteSpace=wrap;rounded=0;fontSize=16;" vertex="1" parent="1">
          <mxGeometry x="370" y="685" width="20" height="30" as="geometry" />
        </mxCell>
        <mxCell id="gtYnEdTjVLz-L2qjGS6A-75" value="" style="endArrow=none;html=1;rounded=0;exitX=1;exitY=0.5;exitDx=0;exitDy=0;" edge="1" parent="1">
          <mxGeometry width="50" height="50" relative="1" as="geometry">
            <mxPoint x="180" y="400.0000000000002" as="sourcePoint" />
            <mxPoint x="320" y="400" as="targetPoint" />
          </mxGeometry>
        </mxCell>
        <mxCell id="gtYnEdTjVLz-L2qjGS6A-77" value="" style="endArrow=none;dashed=1;html=1;dashPattern=1 3;strokeWidth=2;rounded=0;" edge="1" parent="1">
          <mxGeometry width="50" height="50" relative="1" as="geometry">
            <mxPoint x="40" y="460" as="sourcePoint" />
            <mxPoint x="400" y="460" as="targetPoint" />
          </mxGeometry>
        </mxCell>
        <mxCell id="gtYnEdTjVLz-L2qjGS6A-80" value="" style="endArrow=none;html=1;rounded=0;exitX=0;exitY=0.25;exitDx=0;exitDy=0;" edge="1" parent="1">
          <mxGeometry width="50" height="50" relative="1" as="geometry">
            <mxPoint x="120" y="380.0000000000002" as="sourcePoint" />
            <mxPoint x="80" y="380" as="targetPoint" />
          </mxGeometry>
        </mxCell>
        <mxCell id="gtYnEdTjVLz-L2qjGS6A-81" value="" style="endArrow=none;html=1;rounded=0;exitX=0;exitY=0.75;exitDx=0;exitDy=0;" edge="1" parent="1">
          <mxGeometry width="50" height="50" relative="1" as="geometry">
            <mxPoint x="120" y="420.0000000000002" as="sourcePoint" />
            <mxPoint x="80" y="420" as="targetPoint" />
          </mxGeometry>
        </mxCell>
        <mxCell id="gtYnEdTjVLz-L2qjGS6A-82" value="A1" style="text;html=1;strokeColor=none;fillColor=none;align=center;verticalAlign=middle;whiteSpace=wrap;rounded=0;fontSize=16;" vertex="1" parent="1">
          <mxGeometry x="50" y="365" width="20" height="30" as="geometry" />
        </mxCell>
        <mxCell id="gtYnEdTjVLz-L2qjGS6A-83" value="A2" style="text;html=1;strokeColor=none;fillColor=none;align=center;verticalAlign=middle;whiteSpace=wrap;rounded=0;fontSize=16;" vertex="1" parent="1">
          <mxGeometry x="50" y="405" width="20" height="30" as="geometry" />
        </mxCell>
        <mxCell id="gtYnEdTjVLz-L2qjGS6A-95" value="" style="endArrow=none;html=1;rounded=0;exitX=0;exitY=0.75;exitDx=0;exitDy=0;" edge="1" parent="1">
          <mxGeometry width="50" height="50" relative="1" as="geometry">
            <mxPoint x="320" y="799.9999999999998" as="sourcePoint" />
            <mxPoint x="360" y="800" as="targetPoint" />
          </mxGeometry>
        </mxCell>
        <mxCell id="gtYnEdTjVLz-L2qjGS6A-96" value="" style="endArrow=none;html=1;rounded=0;exitX=0;exitY=0.25;exitDx=0;exitDy=0;" edge="1" parent="1">
          <mxGeometry width="50" height="50" relative="1" as="geometry">
            <mxPoint x="320" y="919.9999999999998" as="sourcePoint" />
            <mxPoint x="360" y="920" as="targetPoint" />
          </mxGeometry>
        </mxCell>
        <mxCell id="gtYnEdTjVLz-L2qjGS6A-97" value="" style="endArrow=none;html=1;rounded=0;exitX=0;exitY=0.25;exitDx=0;exitDy=0;" edge="1" parent="1">
          <mxGeometry width="50" height="50" relative="1" as="geometry">
            <mxPoint x="120" y="799.9999999999998" as="sourcePoint" />
            <mxPoint x="80" y="800" as="targetPoint" />
          </mxGeometry>
        </mxCell>
        <mxCell id="gtYnEdTjVLz-L2qjGS6A-98" value="" style="endArrow=none;html=1;rounded=0;exitX=0;exitY=0.75;exitDx=0;exitDy=0;" edge="1" parent="1">
          <mxGeometry width="50" height="50" relative="1" as="geometry">
            <mxPoint x="120" y="919.9999999999998" as="sourcePoint" />
            <mxPoint x="80" y="920" as="targetPoint" />
          </mxGeometry>
        </mxCell>
        <mxCell id="gtYnEdTjVLz-L2qjGS6A-99" value="A1" style="text;html=1;strokeColor=none;fillColor=none;align=center;verticalAlign=middle;whiteSpace=wrap;rounded=0;fontSize=16;" vertex="1" parent="1">
          <mxGeometry x="50" y="780" width="20" height="30" as="geometry" />
        </mxCell>
        <mxCell id="gtYnEdTjVLz-L2qjGS6A-100" value="A2" style="text;html=1;strokeColor=none;fillColor=none;align=center;verticalAlign=middle;whiteSpace=wrap;rounded=0;fontSize=16;" vertex="1" parent="1">
          <mxGeometry x="50" y="900" width="20" height="30" as="geometry" />
        </mxCell>
        <mxCell id="gtYnEdTjVLz-L2qjGS6A-101" value="B2" style="text;html=1;strokeColor=none;fillColor=none;align=center;verticalAlign=middle;whiteSpace=wrap;rounded=0;fontSize=16;" vertex="1" parent="1">
          <mxGeometry x="370" y="780" width="20" height="30" as="geometry" />
        </mxCell>
        <mxCell id="gtYnEdTjVLz-L2qjGS6A-102" value="B1" style="text;html=1;strokeColor=none;fillColor=none;align=center;verticalAlign=middle;whiteSpace=wrap;rounded=0;fontSize=16;" vertex="1" parent="1">
          <mxGeometry x="370" y="900" width="20" height="30" as="geometry" />
        </mxCell>
        <mxCell id="gtYnEdTjVLz-L2qjGS6A-103" value="" style="triangle;whiteSpace=wrap;html=1;" vertex="1" parent="1">
          <mxGeometry x="260" y="760" width="60" height="80" as="geometry" />
        </mxCell>
        <mxCell id="gtYnEdTjVLz-L2qjGS6A-104" value="" style="triangle;whiteSpace=wrap;html=1;" vertex="1" parent="1">
          <mxGeometry x="260" y="880" width="60" height="80" as="geometry" />
        </mxCell>
        <mxCell id="gtYnEdTjVLz-L2qjGS6A-105" value="" style="triangle;whiteSpace=wrap;html=1;rotation=-180;labelBackgroundColor=none;fillColor=#000000;" vertex="1" parent="1">
          <mxGeometry x="120" y="760" width="60" height="80" as="geometry" />
        </mxCell>
        <mxCell id="gtYnEdTjVLz-L2qjGS6A-106" value="" style="triangle;whiteSpace=wrap;html=1;rotation=-180;labelBackgroundColor=none;fillColor=#000000;" vertex="1" parent="1">
          <mxGeometry x="120" y="880" width="60" height="80" as="geometry" />
        </mxCell>
        <mxCell id="gtYnEdTjVLz-L2qjGS6A-107" value="" style="endArrow=none;html=1;rounded=0;exitX=1;exitY=0.5;exitDx=0;exitDy=0;entryX=1;entryY=0.5;entryDx=0;entryDy=0;" edge="1" parent="1">
          <mxGeometry width="50" height="50" relative="1" as="geometry">
            <mxPoint x="180" y="780" as="sourcePoint" />
            <mxPoint x="260" y="780" as="targetPoint" />
          </mxGeometry>
        </mxCell>
        <mxCell id="gtYnEdTjVLz-L2qjGS6A-108" value="" style="endArrow=none;html=1;rounded=0;exitX=1;exitY=0.5;exitDx=0;exitDy=0;entryX=0;entryY=0.25;entryDx=0;entryDy=0;" edge="1" parent="1" target="gtYnEdTjVLz-L2qjGS6A-104">
          <mxGeometry width="50" height="50" relative="1" as="geometry">
            <mxPoint x="180" y="820" as="sourcePoint" />
            <mxPoint x="260" y="820" as="targetPoint" />
          </mxGeometry>
        </mxCell>
        <mxCell id="gtYnEdTjVLz-L2qjGS6A-109" value="" style="endArrow=none;html=1;rounded=0;exitX=0;exitY=0.75;exitDx=0;exitDy=0;entryX=0;entryY=0.75;entryDx=0;entryDy=0;" edge="1" parent="1" source="gtYnEdTjVLz-L2qjGS6A-106" target="gtYnEdTjVLz-L2qjGS6A-103">
          <mxGeometry width="50" height="50" relative="1" as="geometry">
            <mxPoint x="190" y="830" as="sourcePoint" />
            <mxPoint x="270" y="910" as="targetPoint" />
          </mxGeometry>
        </mxCell>
        <mxCell id="gtYnEdTjVLz-L2qjGS6A-110" value="" style="endArrow=none;html=1;rounded=0;exitX=1;exitY=0.5;exitDx=0;exitDy=0;entryX=1;entryY=0.5;entryDx=0;entryDy=0;" edge="1" parent="1">
          <mxGeometry width="50" height="50" relative="1" as="geometry">
            <mxPoint x="180" y="940" as="sourcePoint" />
            <mxPoint x="260" y="940" as="targetPoint" />
          </mxGeometry>
        </mxCell>
        <mxCell id="gtYnEdTjVLz-L2qjGS6A-111" value="" style="triangle;whiteSpace=wrap;html=1;" vertex="1" parent="1">
          <mxGeometry x="120" y="360" width="60" height="80" as="geometry" />
        </mxCell>
        <mxCell id="gtYnEdTjVLz-L2qjGS6A-126" style="edgeStyle=orthogonalEdgeStyle;rounded=0;orthogonalLoop=1;jettySize=auto;html=1;exitX=0.5;exitY=1;exitDx=0;exitDy=0;" edge="1" parent="1">
          <mxGeometry relative="1" as="geometry">
            <mxPoint x="220" y="379.9999999999998" as="sourcePoint" />
            <mxPoint x="220" y="379.9999999999998" as="targetPoint" />
          </mxGeometry>
        </mxCell>
        <mxCell id="gtYnEdTjVLz-L2qjGS6A-157" value="" style="endArrow=none;html=1;rounded=0;exitX=1;exitY=0.5;exitDx=0;exitDy=0;" edge="1" parent="1">
          <mxGeometry width="50" height="50" relative="1" as="geometry">
            <mxPoint x="80" y="500.0000000000002" as="sourcePoint" />
            <mxPoint x="120" y="500" as="targetPoint" />
          </mxGeometry>
        </mxCell>
        <mxCell id="gtYnEdTjVLz-L2qjGS6A-159" style="edgeStyle=orthogonalEdgeStyle;rounded=0;orthogonalLoop=1;jettySize=auto;html=1;exitX=0.5;exitY=1;exitDx=0;exitDy=0;" edge="1" parent="1">
          <mxGeometry relative="1" as="geometry">
            <mxPoint x="120" y="479.9999999999998" as="sourcePoint" />
            <mxPoint x="120" y="479.9999999999998" as="targetPoint" />
          </mxGeometry>
        </mxCell>
        <mxCell id="gtYnEdTjVLz-L2qjGS6A-160" value="" style="endArrow=none;html=1;rounded=0;exitX=1;exitY=0.5;exitDx=0;exitDy=0;" edge="1" parent="1">
          <mxGeometry width="50" height="50" relative="1" as="geometry">
            <mxPoint x="80" y="540.0000000000002" as="sourcePoint" />
            <mxPoint x="120" y="540" as="targetPoint" />
          </mxGeometry>
        </mxCell>
        <mxCell id="gtYnEdTjVLz-L2qjGS6A-162" style="edgeStyle=orthogonalEdgeStyle;rounded=0;orthogonalLoop=1;jettySize=auto;html=1;exitX=0.5;exitY=1;exitDx=0;exitDy=0;" edge="1" parent="1">
          <mxGeometry relative="1" as="geometry">
            <mxPoint x="120" y="519.9999999999998" as="sourcePoint" />
            <mxPoint x="120" y="519.9999999999998" as="targetPoint" />
          </mxGeometry>
        </mxCell>
        <mxCell id="gtYnEdTjVLz-L2qjGS6A-163" value="A1" style="text;html=1;strokeColor=none;fillColor=none;align=center;verticalAlign=middle;whiteSpace=wrap;rounded=0;fontSize=16;" vertex="1" parent="1">
          <mxGeometry x="50" y="485" width="20" height="30" as="geometry" />
        </mxCell>
        <mxCell id="gtYnEdTjVLz-L2qjGS6A-164" value="A2" style="text;html=1;strokeColor=none;fillColor=none;align=center;verticalAlign=middle;whiteSpace=wrap;rounded=0;fontSize=16;" vertex="1" parent="1">
          <mxGeometry x="50" y="525" width="20" height="30" as="geometry" />
        </mxCell>
        <mxCell id="gtYnEdTjVLz-L2qjGS6A-182" value="" style="triangle;whiteSpace=wrap;html=1;fillColor=#000000;" vertex="1" parent="1">
          <mxGeometry x="520" y="80" width="60" height="80" as="geometry" />
        </mxCell>
        <mxCell id="gtYnEdTjVLz-L2qjGS6A-183" value="" style="endArrow=none;html=1;rounded=0;exitX=1;exitY=0.5;exitDx=0;exitDy=0;entryX=1;entryY=0.5;entryDx=0;entryDy=0;" edge="1" parent="1" source="gtYnEdTjVLz-L2qjGS6A-182" target="gtYnEdTjVLz-L2qjGS6A-184">
          <mxGeometry width="50" height="50" relative="1" as="geometry">
            <mxPoint x="800" y="370" as="sourcePoint" />
            <mxPoint x="640" y="120" as="targetPoint" />
          </mxGeometry>
        </mxCell>
        <mxCell id="gtYnEdTjVLz-L2qjGS6A-184" value="" style="triangle;whiteSpace=wrap;html=1;rotation=-180;fillColor=#000000;" vertex="1" parent="1">
          <mxGeometry x="660" y="80" width="60" height="80" as="geometry" />
        </mxCell>
        <mxCell id="gtYnEdTjVLz-L2qjGS6A-185" value="" style="endArrow=none;dashed=1;html=1;dashPattern=1 3;strokeWidth=2;rounded=0;" edge="1" parent="1">
          <mxGeometry width="50" height="50" relative="1" as="geometry">
            <mxPoint x="440" y="180" as="sourcePoint" />
            <mxPoint x="800" y="180" as="targetPoint" />
          </mxGeometry>
        </mxCell>
        <mxCell id="gtYnEdTjVLz-L2qjGS6A-186" value="" style="endArrow=none;html=1;rounded=0;exitX=0;exitY=0.75;exitDx=0;exitDy=0;" edge="1" parent="1" source="gtYnEdTjVLz-L2qjGS6A-184">
          <mxGeometry width="50" height="50" relative="1" as="geometry">
            <mxPoint x="800" y="370" as="sourcePoint" />
            <mxPoint x="760" y="100" as="targetPoint" />
          </mxGeometry>
        </mxCell>
        <mxCell id="gtYnEdTjVLz-L2qjGS6A-187" value="" style="endArrow=none;html=1;rounded=0;exitX=0;exitY=0.25;exitDx=0;exitDy=0;" edge="1" parent="1" source="gtYnEdTjVLz-L2qjGS6A-184">
          <mxGeometry width="50" height="50" relative="1" as="geometry">
            <mxPoint x="730" y="110" as="sourcePoint" />
            <mxPoint x="760" y="140" as="targetPoint" />
          </mxGeometry>
        </mxCell>
        <mxCell id="gtYnEdTjVLz-L2qjGS6A-188" value="" style="endArrow=none;html=1;rounded=0;exitX=0;exitY=0.25;exitDx=0;exitDy=0;" edge="1" parent="1" source="gtYnEdTjVLz-L2qjGS6A-182">
          <mxGeometry width="50" height="50" relative="1" as="geometry">
            <mxPoint x="730" y="150" as="sourcePoint" />
            <mxPoint x="480" y="100" as="targetPoint" />
          </mxGeometry>
        </mxCell>
        <mxCell id="gtYnEdTjVLz-L2qjGS6A-189" value="" style="endArrow=none;html=1;rounded=0;exitX=0;exitY=0.75;exitDx=0;exitDy=0;" edge="1" parent="1" source="gtYnEdTjVLz-L2qjGS6A-182">
          <mxGeometry width="50" height="50" relative="1" as="geometry">
            <mxPoint x="520" y="134.58" as="sourcePoint" />
            <mxPoint x="480" y="140" as="targetPoint" />
          </mxGeometry>
        </mxCell>
        <mxCell id="gtYnEdTjVLz-L2qjGS6A-190" value="A1" style="text;html=1;strokeColor=none;fillColor=none;align=center;verticalAlign=middle;whiteSpace=wrap;rounded=0;fontSize=16;" vertex="1" parent="1">
          <mxGeometry x="450" y="85" width="20" height="30" as="geometry" />
        </mxCell>
        <mxCell id="gtYnEdTjVLz-L2qjGS6A-191" value="A2" style="text;html=1;strokeColor=none;fillColor=none;align=center;verticalAlign=middle;whiteSpace=wrap;rounded=0;fontSize=16;" vertex="1" parent="1">
          <mxGeometry x="450" y="125" width="20" height="30" as="geometry" />
        </mxCell>
        <mxCell id="gtYnEdTjVLz-L2qjGS6A-192" value="B2" style="text;html=1;strokeColor=none;fillColor=none;align=center;verticalAlign=middle;whiteSpace=wrap;rounded=0;fontSize=16;" vertex="1" parent="1">
          <mxGeometry x="770" y="85" width="20" height="30" as="geometry" />
        </mxCell>
        <mxCell id="gtYnEdTjVLz-L2qjGS6A-193" value="B1" style="text;html=1;strokeColor=none;fillColor=none;align=center;verticalAlign=middle;whiteSpace=wrap;rounded=0;fontSize=16;" vertex="1" parent="1">
          <mxGeometry x="770" y="125" width="20" height="30" as="geometry" />
        </mxCell>
        <mxCell id="gtYnEdTjVLz-L2qjGS6A-194" value="" style="endArrow=none;html=1;rounded=0;" edge="1" parent="1">
          <mxGeometry width="50" height="50" relative="1" as="geometry">
            <mxPoint x="480" y="250" as="sourcePoint" />
            <mxPoint x="760" y="210" as="targetPoint" />
          </mxGeometry>
        </mxCell>
        <mxCell id="gtYnEdTjVLz-L2qjGS6A-195" value="" style="endArrow=none;html=1;rounded=0;" edge="1" parent="1">
          <mxGeometry width="50" height="50" relative="1" as="geometry">
            <mxPoint x="760" y="250" as="sourcePoint" />
            <mxPoint x="480" y="210" as="targetPoint" />
          </mxGeometry>
        </mxCell>
        <mxCell id="gtYnEdTjVLz-L2qjGS6A-196" value="A1" style="text;html=1;strokeColor=none;fillColor=none;align=center;verticalAlign=middle;whiteSpace=wrap;rounded=0;fontSize=16;" vertex="1" parent="1">
          <mxGeometry x="450" y="190" width="20" height="30" as="geometry" />
        </mxCell>
        <mxCell id="gtYnEdTjVLz-L2qjGS6A-197" value="A2" style="text;html=1;strokeColor=none;fillColor=none;align=center;verticalAlign=middle;whiteSpace=wrap;rounded=0;fontSize=16;" vertex="1" parent="1">
          <mxGeometry x="450" y="240" width="20" height="30" as="geometry" />
        </mxCell>
        <mxCell id="gtYnEdTjVLz-L2qjGS6A-198" value="B2" style="text;html=1;strokeColor=none;fillColor=none;align=center;verticalAlign=middle;whiteSpace=wrap;rounded=0;fontSize=16;" vertex="1" parent="1">
          <mxGeometry x="770" y="190" width="20" height="30" as="geometry" />
        </mxCell>
        <mxCell id="gtYnEdTjVLz-L2qjGS6A-199" value="B1" style="text;html=1;strokeColor=none;fillColor=none;align=center;verticalAlign=middle;whiteSpace=wrap;rounded=0;fontSize=16;" vertex="1" parent="1">
          <mxGeometry x="770" y="240" width="20" height="30" as="geometry" />
        </mxCell>
        <mxCell id="gtYnEdTjVLz-L2qjGS6A-201" value="" style="endArrow=none;html=1;rounded=0;" edge="1" parent="1">
          <mxGeometry width="50" height="50" relative="1" as="geometry">
            <mxPoint x="520" y="680" as="sourcePoint" />
            <mxPoint x="720" y="680" as="targetPoint" />
          </mxGeometry>
        </mxCell>
        <mxCell id="gtYnEdTjVLz-L2qjGS6A-203" value="" style="endArrow=none;dashed=1;html=1;dashPattern=1 3;strokeWidth=2;rounded=0;" edge="1" parent="1">
          <mxGeometry width="50" height="50" relative="1" as="geometry">
            <mxPoint x="440" y="740" as="sourcePoint" />
            <mxPoint x="800" y="740" as="targetPoint" />
          </mxGeometry>
        </mxCell>
        <mxCell id="gtYnEdTjVLz-L2qjGS6A-228" value="" style="endArrow=none;html=1;rounded=0;shadow=0;" edge="1" parent="1">
          <mxGeometry width="50" height="50" relative="1" as="geometry">
            <mxPoint x="320" y="410" as="sourcePoint" />
            <mxPoint x="320" y="390" as="targetPoint" />
            <Array as="points">
              <mxPoint x="320" y="400" />
            </Array>
          </mxGeometry>
        </mxCell>
        <mxCell id="gtYnEdTjVLz-L2qjGS6A-229" value="" style="endArrow=none;html=1;rounded=0;" edge="1" parent="1">
          <mxGeometry width="50" height="50" relative="1" as="geometry">
            <mxPoint x="120" y="510" as="sourcePoint" />
            <mxPoint x="120" y="490" as="targetPoint" />
            <Array as="points" />
          </mxGeometry>
        </mxCell>
        <mxCell id="gtYnEdTjVLz-L2qjGS6A-230" value="" style="endArrow=none;html=1;rounded=0;" edge="1" parent="1">
          <mxGeometry width="50" height="50" relative="1" as="geometry">
            <mxPoint x="120" y="550" as="sourcePoint" />
            <mxPoint x="120" y="530" as="targetPoint" />
            <Array as="points" />
          </mxGeometry>
        </mxCell>
        <mxCell id="gtYnEdTjVLz-L2qjGS6A-231" value="" style="endArrow=none;html=1;rounded=0;exitX=1;exitY=0.5;exitDx=0;exitDy=0;" edge="1" parent="1">
          <mxGeometry width="50" height="50" relative="1" as="geometry">
            <mxPoint x="578.95" y="400.0000000000002" as="sourcePoint" />
            <mxPoint x="718.95" y="400" as="targetPoint" />
          </mxGeometry>
        </mxCell>
        <mxCell id="gtYnEdTjVLz-L2qjGS6A-232" value="" style="endArrow=none;html=1;rounded=0;exitX=0;exitY=0.25;exitDx=0;exitDy=0;" edge="1" parent="1">
          <mxGeometry width="50" height="50" relative="1" as="geometry">
            <mxPoint x="518.95" y="380.0000000000002" as="sourcePoint" />
            <mxPoint x="478.95" y="380" as="targetPoint" />
          </mxGeometry>
        </mxCell>
        <mxCell id="gtYnEdTjVLz-L2qjGS6A-233" value="" style="endArrow=none;html=1;rounded=0;exitX=0;exitY=0.75;exitDx=0;exitDy=0;" edge="1" parent="1">
          <mxGeometry width="50" height="50" relative="1" as="geometry">
            <mxPoint x="518.95" y="420.0000000000002" as="sourcePoint" />
            <mxPoint x="478.95" y="420" as="targetPoint" />
          </mxGeometry>
        </mxCell>
        <mxCell id="gtYnEdTjVLz-L2qjGS6A-234" value="A1" style="text;html=1;strokeColor=none;fillColor=none;align=center;verticalAlign=middle;whiteSpace=wrap;rounded=0;fontSize=16;" vertex="1" parent="1">
          <mxGeometry x="450" y="365" width="20" height="30" as="geometry" />
        </mxCell>
        <mxCell id="gtYnEdTjVLz-L2qjGS6A-235" value="A2" style="text;html=1;strokeColor=none;fillColor=none;align=center;verticalAlign=middle;whiteSpace=wrap;rounded=0;fontSize=16;" vertex="1" parent="1">
          <mxGeometry x="450" y="405" width="20" height="30" as="geometry" />
        </mxCell>
        <mxCell id="gtYnEdTjVLz-L2qjGS6A-236" value="" style="triangle;whiteSpace=wrap;html=1;fillColor=#000000;" vertex="1" parent="1">
          <mxGeometry x="518.95" y="360" width="60" height="80" as="geometry" />
        </mxCell>
        <mxCell id="gtYnEdTjVLz-L2qjGS6A-237" style="edgeStyle=orthogonalEdgeStyle;rounded=0;orthogonalLoop=1;jettySize=auto;html=1;exitX=0.5;exitY=1;exitDx=0;exitDy=0;" edge="1" parent="1">
          <mxGeometry relative="1" as="geometry">
            <mxPoint x="618.95" y="379.9999999999998" as="sourcePoint" />
            <mxPoint x="618.95" y="379.9999999999998" as="targetPoint" />
          </mxGeometry>
        </mxCell>
        <mxCell id="gtYnEdTjVLz-L2qjGS6A-238" value="" style="endArrow=none;html=1;rounded=0;exitX=1;exitY=0.5;exitDx=0;exitDy=0;" edge="1" parent="1">
          <mxGeometry width="50" height="50" relative="1" as="geometry">
            <mxPoint x="478.95" y="500.0000000000002" as="sourcePoint" />
            <mxPoint x="518.95" y="500" as="targetPoint" />
          </mxGeometry>
        </mxCell>
        <mxCell id="gtYnEdTjVLz-L2qjGS6A-239" style="edgeStyle=orthogonalEdgeStyle;rounded=0;orthogonalLoop=1;jettySize=auto;html=1;exitX=0.5;exitY=1;exitDx=0;exitDy=0;" edge="1" parent="1">
          <mxGeometry relative="1" as="geometry">
            <mxPoint x="518.95" y="479.9999999999998" as="sourcePoint" />
            <mxPoint x="518.95" y="479.9999999999998" as="targetPoint" />
          </mxGeometry>
        </mxCell>
        <mxCell id="gtYnEdTjVLz-L2qjGS6A-240" value="" style="endArrow=none;html=1;rounded=0;exitX=1;exitY=0.5;exitDx=0;exitDy=0;" edge="1" parent="1">
          <mxGeometry width="50" height="50" relative="1" as="geometry">
            <mxPoint x="478.95" y="540.0000000000002" as="sourcePoint" />
            <mxPoint x="518.95" y="540" as="targetPoint" />
          </mxGeometry>
        </mxCell>
        <mxCell id="gtYnEdTjVLz-L2qjGS6A-241" style="edgeStyle=orthogonalEdgeStyle;rounded=0;orthogonalLoop=1;jettySize=auto;html=1;exitX=0.5;exitY=1;exitDx=0;exitDy=0;" edge="1" parent="1">
          <mxGeometry relative="1" as="geometry">
            <mxPoint x="518.95" y="519.9999999999998" as="sourcePoint" />
            <mxPoint x="518.95" y="519.9999999999998" as="targetPoint" />
          </mxGeometry>
        </mxCell>
        <mxCell id="gtYnEdTjVLz-L2qjGS6A-243" value="" style="endArrow=none;html=1;rounded=0;shadow=0;" edge="1" parent="1">
          <mxGeometry width="50" height="50" relative="1" as="geometry">
            <mxPoint x="718.95" y="410" as="sourcePoint" />
            <mxPoint x="718.95" y="390" as="targetPoint" />
            <Array as="points">
              <mxPoint x="718.95" y="400" />
            </Array>
          </mxGeometry>
        </mxCell>
        <mxCell id="gtYnEdTjVLz-L2qjGS6A-244" value="" style="endArrow=none;html=1;rounded=0;" edge="1" parent="1">
          <mxGeometry width="50" height="50" relative="1" as="geometry">
            <mxPoint x="518.95" y="510" as="sourcePoint" />
            <mxPoint x="518.95" y="490" as="targetPoint" />
            <Array as="points" />
          </mxGeometry>
        </mxCell>
        <mxCell id="gtYnEdTjVLz-L2qjGS6A-245" value="" style="endArrow=none;dashed=1;html=1;dashPattern=1 3;strokeWidth=2;rounded=0;" edge="1" parent="1">
          <mxGeometry width="50" height="50" relative="1" as="geometry">
            <mxPoint x="440" y="460" as="sourcePoint" />
            <mxPoint x="800" y="460" as="targetPoint" />
          </mxGeometry>
        </mxCell>
        <mxCell id="gtYnEdTjVLz-L2qjGS6A-246" value="" style="endArrow=none;html=1;rounded=0;" edge="1" parent="1">
          <mxGeometry width="50" height="50" relative="1" as="geometry">
            <mxPoint x="520" y="690" as="sourcePoint" />
            <mxPoint x="520" y="670" as="targetPoint" />
          </mxGeometry>
        </mxCell>
        <mxCell id="gtYnEdTjVLz-L2qjGS6A-247" value="" style="endArrow=none;html=1;rounded=0;" edge="1" parent="1">
          <mxGeometry width="50" height="50" relative="1" as="geometry">
            <mxPoint x="720" y="690" as="sourcePoint" />
            <mxPoint x="720" y="670" as="targetPoint" />
          </mxGeometry>
        </mxCell>
        <mxCell id="gtYnEdTjVLz-L2qjGS6A-249" value="&lt;font style=&quot;font-size: 20px;&quot;&gt;CON-CON&lt;/font&gt;" style="text;html=1;strokeColor=none;fillColor=none;align=center;verticalAlign=middle;whiteSpace=wrap;rounded=0;" vertex="1" parent="1">
          <mxGeometry x="170" y="40" width="100" height="20" as="geometry" />
        </mxCell>
        <mxCell id="gtYnEdTjVLz-L2qjGS6A-250" value="&lt;font style=&quot;font-size: 20px;&quot;&gt;DUP-DUP&lt;/font&gt;" style="text;html=1;strokeColor=none;fillColor=none;align=center;verticalAlign=middle;whiteSpace=wrap;rounded=0;" vertex="1" parent="1">
          <mxGeometry x="570" y="40" width="100" height="20" as="geometry" />
        </mxCell>
        <mxCell id="gtYnEdTjVLz-L2qjGS6A-251" value="&lt;font style=&quot;font-size: 20px;&quot;&gt;CON-ERA&lt;/font&gt;" style="text;html=1;strokeColor=none;fillColor=none;align=center;verticalAlign=middle;whiteSpace=wrap;rounded=0;" vertex="1" parent="1">
          <mxGeometry x="170" y="320" width="100" height="20" as="geometry" />
        </mxCell>
        <mxCell id="gtYnEdTjVLz-L2qjGS6A-252" value="&lt;font style=&quot;font-size: 20px;&quot;&gt;DUP-ERA&lt;br&gt;&lt;/font&gt;" style="text;html=1;strokeColor=none;fillColor=none;align=center;verticalAlign=middle;whiteSpace=wrap;rounded=0;" vertex="1" parent="1">
          <mxGeometry x="570" y="320" width="100" height="20" as="geometry" />
        </mxCell>
        <mxCell id="gtYnEdTjVLz-L2qjGS6A-253" value="&lt;font style=&quot;font-size: 20px;&quot;&gt;CON-DUP&lt;/font&gt;" style="text;html=1;strokeColor=none;fillColor=none;align=center;verticalAlign=middle;whiteSpace=wrap;rounded=0;" vertex="1" parent="1">
          <mxGeometry x="170" y="600" width="100" height="20" as="geometry" />
        </mxCell>
        <mxCell id="gtYnEdTjVLz-L2qjGS6A-254" value="&lt;font style=&quot;font-size: 20px;&quot;&gt;ERA-ERA&lt;/font&gt;" style="text;html=1;strokeColor=none;fillColor=none;align=center;verticalAlign=middle;whiteSpace=wrap;rounded=0;" vertex="1" parent="1">
          <mxGeometry x="570" y="600" width="100" height="20" as="geometry" />
        </mxCell>
        <mxCell id="gtYnEdTjVLz-L2qjGS6A-255" value="" style="endArrow=none;html=1;rounded=0;" edge="1" parent="1">
          <mxGeometry width="50" height="50" relative="1" as="geometry">
            <mxPoint x="520" y="550" as="sourcePoint" />
            <mxPoint x="520" y="530" as="targetPoint" />
            <Array as="points" />
          </mxGeometry>
        </mxCell>
        <mxCell id="gtYnEdTjVLz-L2qjGS6A-256" value="A1" style="text;html=1;strokeColor=none;fillColor=none;align=center;verticalAlign=middle;whiteSpace=wrap;rounded=0;fontSize=16;" vertex="1" parent="1">
          <mxGeometry x="450" y="485" width="20" height="30" as="geometry" />
        </mxCell>
        <mxCell id="gtYnEdTjVLz-L2qjGS6A-257" value="A2" style="text;html=1;strokeColor=none;fillColor=none;align=center;verticalAlign=middle;whiteSpace=wrap;rounded=0;fontSize=16;" vertex="1" parent="1">
          <mxGeometry x="450" y="525" width="20" height="30" as="geometry" />
        </mxCell>
      </root>
    </mxGraphModel>
  </diagram>
</mxfile>
